P1
# Imagem 1 do arquivo
5 3
1 1 0 1 0
1 1 0 0 1
0 0 1 1 1
