P1
#2x2
2 2
0 0
0 1
